<svg width="1024" height="1024" xmlns="http://www.w3.org/2000/svg" p-id="1308" version="1.1" class="icon" t="1686789380349">

 <g>
  <title>Layer 1</title>
  <path stroke="null" id="svg_1" p-id="1309" fill="#db2747" d="m617.42659,491.27884l-198.35578,0l0,-198.35578c0,-9.95385 -8.0785,-18.03235 -18.03235,-18.03235c-9.95385,0 -18.03235,8.0785 -18.03235,18.03235l0,198.35578l-198.35578,0c-9.95385,0 -18.03234,8.07849 -18.03234,18.03235c-0.00001,9.95385 8.07849,18.03234 18.03234,18.03234l198.35578,0l0,198.35578c0,9.95386 8.07849,18.03235 18.03235,18.03235c9.95385,0 18.03235,-8.07849 18.03235,-18.03235l0,-198.35578l198.35578,0c9.95385,0 18.03234,-8.07849 18.03234,-18.03234c0,-9.95386 -8.07849,-18.03235 -18.03234,-18.03235zm-216.38812,-342.61452c-199.18526,0 -360.64686,161.4616 -360.64686,360.64687c0,199.18526 161.46159,360.64686 360.64686,360.64686c199.18527,0 360.64687,-161.4616 360.64687,-360.64686c0,-199.18527 -161.4616,-360.64687 -360.64687,-360.64687zm0,685.22904c-179.27755,0 -324.58218,-145.30462 -324.58218,-324.58218s145.30462,-324.58218 324.58218,-324.58218c179.27756,0 324.58218,145.30462 324.58218,324.58218s-145.30462,324.58218 -324.58218,324.58218z"/>
 </g>
</svg>