<svg width="192" height="192" xmlns="http://www.w3.org/2000/svg" p-id="4725" version="1.1" class="icon" t="1686785783057">

 <g>
  <title>Layer 1</title>
  <path stroke="null" id="svg_1" p-id="4726" fill="#db2747" d="m78.41589,152.06347l41.48069,0l0,6.91345l-41.48069,0l0,-6.91345l0,0zm52.86022,-74.78968l-7.33171,7.33517l-19.55469,-19.55469l7.33517,-7.33171c1.34812,-1.35503 3.53623,-1.35503 4.88781,-0.00346l14.66342,14.66688c1.35504,1.35158 1.35504,3.53969 0,4.88781l0,0zm-89.57409,50.47163l58.39444,-58.39789l19.55469,19.55814l-58.39789,58.39098l-19.55123,-19.55123l0,0zm-1.31701,24.31805l-3.44981,-3.44981l0,-15.85945l19.30926,19.30926l-15.85945,0l0,0zm98.22627,-82.12139l-19.55469,-19.55469c-2.70316,-2.6997 -7.07591,-2.6997 -9.77562,0c0,0 -77.17827,77.17482 -78.21875,78.21875c-1.04047,1.04393 -1.04047,2.71698 -1.04047,2.71698l0,24.19707c0,1.91157 1.54516,3.45672 3.45672,3.45672l24.19707,0c0,0 1.54516,0.13481 2.71699,-1.04047c1.17183,-1.17183 78.21875,-78.21875 78.21875,-78.21875c2.6997,-2.6997 2.6997,-7.07246 0,-9.77562l0,0z"/>
 </g>
</svg>