<?xml version="1.0" standalone="no"?><!DOCTYPE svg PUBLIC "-//W3C//DTD SVG 1.1//EN" "http://www.w3.org/Graphics/SVG/1.1/DTD/svg11.dtd"><svg t="1686557097111" class="icon" viewBox="0 0 1024 1024" version="1.1" xmlns="http://www.w3.org/2000/svg" p-id="1030" width="200" height="200" xmlns:xlink="http://www.w3.org/1999/xlink"><path d="M980.448 950.656c0 3.008 0 3.008 0 0 0 42.208-30.144 75.36-72.32 72.32H85.312C46.144 1022.976 16 989.824 16 950.656V444.32c0-21.12 9.056-42.208 27.136-57.28L453.024 16.384c30.144-24.128 69.312-21.12 96.448 6.016L959.36 396.16c12.032 15.04 21.088 33.12 21.088 51.2v503.328z m-90.432-15.04v-482.24L498.24 91.712 106.432 447.328v488.256h783.584zM317.376 724.576h361.696v90.432H317.376v-90.432z" fill="#2c2c2c" p-id="1031"></path></svg>