<?xml version="1.0" standalone="no"?><!DOCTYPE svg PUBLIC "-//W3C//DTD SVG 1.1//EN" "http://www.w3.org/Graphics/SVG/1.1/DTD/svg11.dtd"><svg t="1686557742532" class="icon" viewBox="0 0 1024 1024" version="1.1" xmlns="http://www.w3.org/2000/svg" p-id="1470" xmlns:xlink="http://www.w3.org/1999/xlink" width="200" height="200"><path d="M526.677333 506.441143c-135.070476 0-253.17181-110.201905-253.171809-253.220572C273.554286 115.516952 385.950476 0 526.677333 0c140.775619 0 253.269333 115.614476 253.269334 253.220571 0 137.557333-112.64 253.220571-253.269334 253.220572z m-161.304381 51.736381h290.279619a279.454476 279.454476 0 0 1 275.553524 232.935619l15.36 90.697143A121.904762 121.904762 0 0 1 826.368 1024H195.047619a121.904762 121.904762 0 0 1-120.198095-142.09219l15.213714-90.794667a279.161905 279.161905 0 0 1 275.309714-232.935619z m57.636572-308.370286a48.761905 48.761905 0 0 0-45.787429 65.584762c8.923429 24.234667 24.576 44.27581 47.006476 60.17219 32.963048 17.749333 107.422476 58.61181 208.408381-7.801904 15.067429-10.044952 27.209143-27.355429 36.571429-51.931429a48.761905 48.761905 0 0 0-45.641143-66.023619H423.009524z" fill="#2c2c2c" p-id="1471"></path></svg>